<?xml version="1.0" encoding="UTF-8" standalone="no"?>
<svg width="74px" height="103px" viewBox="0 0 386 436" version="1.1" xmlns="http://www.w3.org/2000/svg" xmlns:xlink="http://www.w3.org/1999/xlink" xmlns:sketch="http://www.bohemiancoding.com/sketch/ns">
    <title>Bunny </title>
    <description>Created with Sketch (http://www.bohemiancoding.com/sketch)</description>
    <defs>
        <linearGradient x1="0%" y1="91.5181303%" x2="100%" y2="91.5181279%" id="linearGradient-1">
            <stop stop-color="#FAFAFA" offset="0%"></stop>
            <stop stop-color="#ECECEC" offset="100%"></stop>
        </linearGradient>
        <linearGradient x1="50%" y1="73.999011%" x2="50%" y2="100%" id="linearGradient-2">
            <stop stop-color="#FFFFFF" stop-opacity="0" offset="0%"></stop>
            <stop stop-color="#F8F8F8" offset="100%"></stop>
        </linearGradient>
        <path d="M11.115723,319.784424 C-26.762802,301.793457 53.116425,229.922974 53.116425,229.922974 C53.116425,229.922974 48.99411,337.775024 11.115723,319.784424 L11.115723,319.784424 Z M11.115723,319.784424" id="path-3"></path>
        <linearGradient x1="0%" y1="63.7026751%" x2="93.1770588%" y2="85.8058361%" id="linearGradient-4">
            <stop stop-color="#FFFFFF" offset="0%"></stop>
            <stop stop-color="#EDEDED" offset="100%"></stop>
        </linearGradient>
        <linearGradient x1="64.746894%" y1="100%" x2="66.577628%" y2="0%" id="linearGradient-5">
            <stop stop-color="#FFFFFF" stop-opacity="0" offset="0%"></stop>
            <stop stop-color="#000000" stop-opacity="0.0373678768" offset="100%"></stop>
        </linearGradient>
        <path d="M92.848628,68.03962 L272.389781,97.0817051 C272.389781,97.0817051 254.737043,211.885449 293.174365,97.0817017 C341.690706,-47.8255074 92.848628,68.03962 92.848628,68.03962 Z M92.848628,68.03962" id="path-6"></path>
        <linearGradient x1="4.45040667%" y1="22.1279096%" x2="82.0402787%" y2="24.5494898%" id="linearGradient-7">
            <stop stop-color="#0D9300" offset="0%"></stop>
            <stop stop-color="#29CF5F" offset="100%"></stop>
        </linearGradient>
        <path d="M94.6200061,11.7719829 C96.8599995,12.6825822 98.8680202,13.6517698 100.644068,14.6674111 C128.215182,-1.78779368 166.304023,-10.8173718 198,32.0000017 C246.866705,98.0129161 112.962204,60.8885212 73.7537503,48.9499624 C54.3076715,51.7099349 31.8309774,49.9312722 16.2910061,43.6139829 C-5.3389939,34.8209829 -5.3389939,20.5649829 16.2910061,11.7719829 C37.9210061,2.97998291 72.9900061,2.97998291 94.6200061,11.7719829 Z M94.6200061,11.7719829" id="path-8" stroke="none" fill-rule="evenodd"></path>
        <linearGradient x1="25.8106233%" y1="82.8585734%" x2="80.6187889%" y2="31.4014463%" id="linearGradient-9">
            <stop stop-color="#A9F6FF" offset="0%"></stop>
            <stop stop-color="#4FC7FF" offset="100%"></stop>
        </linearGradient>
        <linearGradient x1="13.8439084%" y1="91.3387477%" x2="77.3655823%" y2="21.5946465%" id="linearGradient-10">
            <stop stop-color="#FFFF69" offset="0%"></stop>
            <stop stop-color="#FFD468" offset="100%"></stop>
        </linearGradient>
        <linearGradient x1="50%" y1="50%" x2="50%" y2="100%" id="linearGradient-11">
            <stop stop-color="#FFFFFF" offset="0%"></stop>
            <stop stop-color="#000000" offset="100%"></stop>
        </linearGradient>
        <mask id="mask-12" fill="white">
            <use xlink:href="#path-8"></use>
        </mask>
        <linearGradient x1="50%" y1="37.7035396%" x2="63.72478%" y2="100%" id="linearGradient-13">
            <stop stop-color="#FFFFFF" offset="0%"></stop>
            <stop stop-color="#EEEEEE" offset="100%"></stop>
        </linearGradient>
        <path d="M145.504086,71.5274779 L162.311055,82.2506579 C162.311055,82.2506579 302.165122,156.733112 339.361303,88.7302637 C386.311051,2.89593148 145.504086,71.5274779 145.504086,71.5274779 Z M145.504086,71.5274779" id="path-14"></path>
    </defs>
    <g id="Page 1" stroke="none" stroke-width="1" fill="none" fill-rule="evenodd">
        <g id="Background" transform="translate(110.500000, 271.500000) scale(-1, 1) translate(-110.500000, -271.500000) translate(-153.000000, 5.000000)">
            <path d="M53.645905,396.051697 C-1.612869,392.247009 57.984375,261.789062 57.984375,261.789062 C57.984375,261.789062 108.90448,399.856262 53.645905,396.051697 L53.645905,396.051697 Z M53.645905,396.051697" id="{d4}2" stroke="#686868" stroke-width="2" fill="url(#linearGradient-1)"></path>
            <path d="M118.277344,261.480469 C118.277344,261.480469 169.197449,399.547668 113.938873,395.743103 C58.680099,391.938416 118.277344,261.480469 118.277344,261.480469 Z M118.277344,261.480469" id="{d4}3" stroke="#686868" stroke-width="2" fill="url(#linearGradient-1)"></path>
            <path d="M85,402 C127.525928,402 162,399.761424 162,397 C162,394.238576 127.525928,392 85,392 C42.4740722,392 8,394.238576 8,397 C8,399.761424 42.4740722,402 85,402 Z M85,402" id="Oval 1" opacity="0.0860085227" fill="#D8D8D8"></path>
            <path d="M53.645905,532.051697 C-1.612869,528.247009 57.984375,397.789062 57.984375,397.789062 C57.984375,397.789062 108.90448,535.856262 53.645905,532.051697 L53.645905,532.051697 Z M53.645905,532.051697" id="{d4}2 copy" fill="url(#linearGradient-2)" transform="translate(54.772854, 464.958984) scale(1, -1) translate(-54.772854, -464.958984) "></path>
            <path d="M118.277344,397.480469 C118.277344,397.480469 169.197449,535.547668 113.938873,531.743103 C58.680099,527.938416 118.277344,397.480469 118.277344,397.480469 Z M118.277344,397.480469" id="{d4}3 copy" fill="url(#linearGradient-2)" transform="translate(115.065823, 464.650390) scale(1, -1) translate(-115.065823, -464.650390) "></path>
            <use id="{d4}5" stroke="#686868" stroke-width="2" fill="url(#linearGradient-1)" xlink:href="#path-3"></use>
            <use id="{d4}5-1" fill-opacity="0.76266659" fill="#FFFFFF" xlink:href="#path-3"></use>
            <path d="M182.116425,231.421916 C182.116425,231.421916 177.99411,339.273966 140.115723,321.283366 C102.237198,303.292399 182.116425,231.421916 182.116425,231.421916 Z M182.116425,231.421916" id="{d4}5 copy" stroke="#686868" stroke-width="2" fill="url(#linearGradient-1)" transform="translate(156.019151, 277.364719) scale(-1, 1) translate(-156.019151, -277.364719) "></path>
            <path d="M84.780121,381.109009 C-57.205276,374.738525 95.92778,156.316406 95.92778,156.316406 C95.92778,156.316406 226.764832,387.478943 84.780121,381.109009 L84.780121,381.109009 Z M84.780121,381.109009" id="{d4}6" stroke="#3C3C3C" stroke-width="2" fill="url(#linearGradient-4)"></path>
            <path d="M313.427795,28.696136 C228.659698,-56.554504 82.360962,86.464325 82.360962,86.464325 C82.360962,86.464325 398.195801,113.946594 313.427795,28.696136 L313.427795,28.696136 Z M313.427795,28.696136" id="{d4}7" stroke="#3C3C3C" stroke-width="2" fill="#FFFFFF"></path>
            <use id="{d4}10 copy" opacity="0.559659091" fill="#FFFFFF" transform="translate(196.147903, 86.142476) rotate(-12.000000) translate(-196.147903, -86.142476) " xlink:href="#path-6"></use>
            <use id="{d4}10 copy-1" opacity="0.559659091" fill="url(#linearGradient-5)" xlink:href="#path-6"></use>
            <g id="Group" transform="translate(43.000000, 191.000000)">
                <use id="{d4}8" xlink:href="#path-8" fill="url(#linearGradient-7)"></use>
                <path d="M163.999998,19.0000002 L95.6986137,90.7892157 L153.610666,119.067578 L204.999998,73.0000002 L163.999998,19.0000002 Z M163.999998,19.0000002" id="Path 17" fill="#F9574A" mask="url(#mask-12)"></path>
                <path d="M121.21875,-9.328125 L232.611328,124.701172 L242.423828,-32.1425781 L121.21875,-9.328125 Z M121.21875,-9.328125" id="Path 47" fill="url(#linearGradient-9)" mask="url(#mask-12)"></path>
                <path d="M65.0685061,51.9484016 L167.000002,22 L109.068506,102.948402 L65.0685061,51.9484016 Z M65.0685061,51.9484016" id="Path 15" fill="url(#linearGradient-10)" mask="url(#mask-12)"></path>
                <path d="M-11,0 L-11,112 L233,112 L233,0 L-11,0 Z M-11,0" id="Rectangle 1" stroke="#979797" opacity="0.199573864" fill="url(#linearGradient-11)" mask="url(#mask-12)"></path>
            </g>
            <path d="M168.251,77.692 C205.213,111.517 205.213,166.359 168.251,200.184 C131.288,234.01 71.36,234.01 34.398,200.184 C-2.565,166.359 -2.565,111.517 34.398,77.692 C71.36,43.866 131.288,43.866 168.251,77.692 L168.251,77.692 Z M168.251,77.692" id="{d4}9" stroke="#3C3C3C" stroke-width="2" fill="url(#linearGradient-13)"></path>
            <path d="M362.909546,88.05481 C425.547424,-26.460831 104.275467,65.10376 104.275467,65.10376 C104.275467,65.10376 300.271851,202.570374 362.909546,88.05481 L362.909546,88.05481 Z M362.909546,88.05481" id="{d4}10" stroke="#3C3C3C" stroke-width="2" fill="#FFFFFF"></path>
            <use id="{d4}10" fill="#FFFFFF" xlink:href="#path-14"></use>
            <use id="{d4}10-1" fill="url(#linearGradient-5)" xlink:href="#path-14"></use>
            <path d="M53.671,117.668 C56.939,121.004 56.939,126.412 53.671,129.747 C50.403,133.083 45.104,133.083 41.835,129.747 C38.567,126.412 38.567,121.004 41.835,117.668 C45.104,114.333 50.403,114.333 53.671,117.668 L53.671,117.668 Z M53.671,117.668" id="{d4}12" stroke="#000000" fill="#000000"></path>
            <path d="M130.537185,109.494762 C117.199805,121.846079 95.5752722,121.846079 82.2368529,109.494762 C68.8994727,97.1422332 68.8994727,77.1160168 82.2368529,64.763488 C95.5752722,52.4121707 117.199805,52.4121707 130.537185,64.763488 C143.875605,77.1160168 143.875605,97.1422332 130.537185,109.494762 Z M130.537185,109.494762" id="{d4}13" fill="#FFFFFF"></path>
            <path d="M46.97675,125.181437 C45.94175,125.995014 44.26275,125.995014 43.22775,125.181437 C42.19275,124.367861 42.19275,123.047889 43.22775,122.234313 C44.26275,121.420736 45.94175,121.420736 46.97675,122.234313 C48.01175,123.047889 48.01175,124.367861 46.97675,125.181437 Z M46.97675,125.181437" id="{d4}16" fill="#EBEBEB"></path>
            <path d="M8.824318,144.383698 C27.215042,145.887787 6.582832,161.582794 6.582832,161.582794 C6.582832,161.582794 -9.56633,142.879486 8.824318,144.383698 L8.824318,144.383698 Z M8.824318,144.383698" id="{d4}17" stroke="#000000" fill="#000000"></path>
        </g>
    </g>
</svg>